<svg xmlns="http://www.w3.org/2000/svg" viewBox="0 0 446.595 437.425"><defs><style>.a,.c,.d{fill:#5b718f;}.a{opacity:0.05;}.b,.f,.g{fill:none;}.b{stroke:#5b718f;stroke-width:3px;}.b,.d,.f,.g,.i{stroke-miterlimit:10;}.d,.f,.g,.i{stroke:#fff;}.e{fill:#a6b1bf;}.g{fill-rule:evenodd;}.h{fill:#fff;}.i{fill:#00b9ff;}</style></defs><g transform="translate(-898.766 -1122.575)"><path class="a" d="M108.986,0C196.993,0,329.435,36.329,292.28,164.3s-44.1,171.735-132.1,171.735S0,218.46,0,130.453,20.979,0,108.986,0Z" transform="matrix(0.574, 0.819, -0.819, 0.574, 1174.033, 1122.575)"/><g transform="translate(944.51 1194.015)"><path class="b" d="M274.321,239.668H62.7V112.816A7.8,7.8,0,0,1,70.516,105h195.99a7.8,7.8,0,0,1,7.816,7.816Z" transform="translate(-20.496 -65.175)"/><path class="c" d="M314.465,217.4H30.7L90.1,215h168.7Z" transform="translate(-26.973 -42.912)"/><path class="d" d="M314.611,217H31.688a4.054,4.054,0,0,0-4.088,4.088v3.968a4.054,4.054,0,0,0,4.088,4.088H314.611a4.054,4.054,0,0,0,4.088-4.088v-3.968A4.054,4.054,0,0,0,314.611,217Z" transform="translate(-27.6 -42.507)"/><g transform="translate(147.053 26.598)"><path class="e" d="M220.24,205.823H157.114a7.236,7.236,0,0,1-7.214-7.214V101.214A7.236,7.236,0,0,1,157.114,94H220.24a7.236,7.236,0,0,1,7.214,7.214v97.394A7.236,7.236,0,0,1,220.24,205.823Z" transform="translate(-149.9 -94)"/><g transform="translate(10.22 29.699)"><g transform="translate(0 4.088)"><line class="f" x2="39.198"/></g><path class="g" d="M205.069,126.876h-.962a3.543,3.543,0,0,1-3.607-3.607v-.962a3.543,3.543,0,0,1,3.607-3.607h.962a3.543,3.543,0,0,1,3.607,3.607v.962A3.617,3.617,0,0,1,205.069,126.876Z" transform="translate(-149.879 -118.7)"/></g><g transform="translate(10.22 48.456)"><g transform="translate(0 4.088)"><line class="f" x2="39.198"/></g><path class="g" d="M205.069,142.476h-.962a3.543,3.543,0,0,1-3.607-3.607v-.962a3.543,3.543,0,0,1,3.607-3.607h.962a3.543,3.543,0,0,1,3.607,3.607v.962A3.617,3.617,0,0,1,205.069,142.476Z" transform="translate(-149.879 -134.3)"/></g><g transform="translate(10.22 67.334)"><g transform="translate(0 4.088)"><line class="f" x2="39.198"/></g><path class="g" d="M205.069,158.176h-.962a3.543,3.543,0,0,1-3.607-3.607v-.962A3.543,3.543,0,0,1,204.107,150h.962a3.543,3.543,0,0,1,3.607,3.607v.962A3.7,3.7,0,0,1,205.069,158.176Z" transform="translate(-149.879 -150)"/></g><g transform="translate(10.22 86.091)"><g transform="translate(0 4.088)"><line class="f" x2="39.198"/></g><path class="g" d="M205.069,173.776h-.962a3.543,3.543,0,0,1-3.607-3.607v-.962a3.543,3.543,0,0,1,3.607-3.607h.962a3.543,3.543,0,0,1,3.607,3.607v.962A3.7,3.7,0,0,1,205.069,173.776Z" transform="translate(-149.879 -165.6)"/></g><path class="h" d="M201.41,107.33H167.021c-.361,0-.721-.481-.721-1.2V103.6c0-.6.361-1.2.721-1.2H201.41c.361,0,.721.481.721,1.2v2.525C202.131,106.849,201.771,107.33,201.41,107.33Z" transform="translate(-146.581 -92.3)"/></g><g transform="translate(72.354 0)"><path class="i" d="M177.6,210.7H86.3a6.62,6.62,0,0,1-6.6-6.6V66.6A6.62,6.62,0,0,1,86.3,60h91.3a6.62,6.62,0,0,1,6.6,6.6V204.1A6.62,6.62,0,0,1,177.6,210.7Z" transform="translate(-79.7 -60)"/><g transform="translate(13.75 40.151)"><g transform="translate(0 5.5)"><line class="f" x2="52.801"/></g><path class="g" d="M161.9,107.5h-4.4a3.241,3.241,0,0,1-3.3-3.3V99.8a3.241,3.241,0,0,1,3.3-3.3h4.4a3.241,3.241,0,0,1,3.3,3.3v4.4A3.384,3.384,0,0,1,161.9,107.5Z" transform="translate(-85.998 -96.5)"/></g><g transform="translate(13.75 65.452)"><g transform="translate(0 5.5)"><line class="f" x2="52.801"/></g><path class="g" d="M161.9,130.5h-4.4a3.241,3.241,0,0,1-3.3-3.3v-4.4a3.241,3.241,0,0,1,3.3-3.3h4.4a3.241,3.241,0,0,1,3.3,3.3v4.4A3.384,3.384,0,0,1,161.9,130.5Z" transform="translate(-85.998 -119.5)"/></g><g transform="translate(13.75 90.753)"><g transform="translate(0 5.5)"><line class="f" x2="52.801"/></g><path class="g" d="M161.9,153.5h-4.4a3.241,3.241,0,0,1-3.3-3.3v-4.4a3.241,3.241,0,0,1,3.3-3.3h4.4a3.241,3.241,0,0,1,3.3,3.3v4.4A3.384,3.384,0,0,1,161.9,153.5Z" transform="translate(-85.998 -142.5)"/></g><g transform="translate(13.75 116.053)"><g transform="translate(0 5.5)"><line class="f" x2="52.801"/></g><path class="g" d="M161.9,176.5h-4.4a3.241,3.241,0,0,1-3.3-3.3v-4.4a3.241,3.241,0,0,1,3.3-3.3h4.4a3.241,3.241,0,0,1,3.3,3.3v4.4A3.384,3.384,0,0,1,161.9,176.5Z" transform="translate(-85.998 -165.5)"/></g><path class="h" d="M151,79.1H104.69c-.55,0-.99-.66-.99-1.54V74.04c0-.88.44-1.54.99-1.54H151c.55,0,.99.66.99,1.54v3.41C152.1,78.33,151.661,79.1,151,79.1Z" transform="translate(-77.299 -58.75)"/></g></g></g></svg>