<?xml version="1.0" encoding="utf-8"?>
<!-- Generator: Adobe Illustrator 23.0.0, SVG Export Plug-In . SVG Version: 6.00 Build 0)  -->
<svg version="1.1" id="Layer_1" xmlns="http://www.w3.org/2000/svg" xmlns:xlink="http://www.w3.org/1999/xlink" x="0px" y="0px"
	 viewBox="0 0 179.4 48" style="enable-background:new 0 0 179.4 48;" xml:space="preserve">
<style type="text/css">
	.st0{enable-background:new    ;}
	.st1{fill:#FFFFFF;}
	.st2{fill:#00FF00;}
</style>
<g id="brand-logo" transform="translate(-673.356 -726.133)">
	<g class="st0">
		<path class="st1" d="M691,759.4c-0.8,1.5-2,2.6-3.6,3.5c-1.6,0.8-3.4,1.2-5.6,1.2h-6.6v-19.8h6.6c2.2,0,4,0.4,5.6,1.2
			c1.6,0.8,2.7,2,3.6,3.4s1.2,3.2,1.2,5.2C692.3,756.2,691.9,758,691,759.4z M687.1,759.4c1.3-1.2,1.9-3,1.9-5.2
			c0-2.2-0.6-3.9-1.9-5.2c-1.3-1.2-3.1-1.8-5.5-1.8h-3.2v14.1h3.2C684,761.2,685.8,760.6,687.1,759.4z"/>
		<path class="st1" d="M709,757h-11.9c0.1,1.6,0.5,2.8,1.3,3.5c0.8,0.8,1.8,1.1,3.1,1.1c1.1,0,2-0.3,2.7-0.8
			c0.7-0.5,1.2-1.3,1.4-2.2h3.4c-0.2,1.1-0.6,2-1.3,2.9s-1.5,1.5-2.5,2c-1,0.5-2.2,0.7-3.5,0.7c-1.5,0-2.8-0.3-4-1s-2-1.5-2.7-2.7
			s-1-2.6-1-4.2c0-1.6,0.3-3,1-4.2c0.7-1.2,1.6-2.1,2.7-2.7s2.5-1,4-1c1.5,0,2.8,0.3,4,0.9c1.1,0.6,2,1.5,2.6,2.6
			c0.6,1.1,0.9,2.3,0.9,3.7C709.1,756.2,709.1,756.7,709,757z M705.4,753.1c-0.4-0.7-0.9-1.2-1.6-1.5c-0.7-0.3-1.4-0.5-2.2-0.5
			c-1.3,0-2.3,0.4-3.1,1.1c-0.8,0.8-1.3,1.9-1.4,3.4h8.8C705.9,754.6,705.8,753.7,705.4,753.1z"/>
		<path class="st1" d="M714.7,743.4v20.7h-3.2v-20.7H714.7z"/>
		<path class="st1" d="M725.6,761.4v2.8h-2c-1.6,0-2.9-0.4-3.7-1.2c-0.9-0.8-1.3-2.1-1.3-4v-7.6h-2.2v-2.7h2.2v-3.8h3.2v3.8h3.7v2.7
			h-3.7v7.6c0,0.9,0.2,1.5,0.5,1.8s0.9,0.5,1.7,0.5H725.6z"/>
		<path class="st1" d="M737.7,749.5c1,0.7,1.7,1.6,2.1,2.7v-3.6h3.2v15.4h-3.2v-3.6c-0.4,1.1-1.1,2.1-2.1,2.7c-1,0.7-2.2,1-3.6,1
			c-1.3,0-2.5-0.3-3.6-1c-1.1-0.6-1.9-1.5-2.5-2.7c-0.6-1.2-0.9-2.6-0.9-4.2c0-1.6,0.3-3,0.9-4.2c0.6-1.2,1.4-2.1,2.5-2.7
			c1.1-0.6,2.3-1,3.6-1C735.5,748.5,736.7,748.9,737.7,749.5z M731.7,752.7c-0.9,0.9-1.3,2.2-1.3,3.7c0,1.6,0.4,2.8,1.3,3.7
			c0.8,0.9,2,1.4,3.4,1.4c0.9,0,1.7-0.2,2.4-0.6s1.3-1,1.7-1.8c0.4-0.8,0.6-1.7,0.6-2.7c0-1-0.2-1.9-0.6-2.7c-0.4-0.8-1-1.4-1.7-1.8
			s-1.5-0.6-2.4-0.6C733.6,751.3,732.5,751.8,731.7,752.7z"/>
	</g>
	<g class="st0">
		<path class="st1" d="M760.9,744.4v19.7h-2v-9.4h-10.7v9.4h-2v-19.7h2v8.8H759v-8.8H760.9z"/>
		<path class="st1" d="M775.3,749.6c1.1,0.6,2,1.5,2.7,2.7s1,2.6,1,4.2s-0.3,3-1,4.2c-0.7,1.2-1.6,2.1-2.7,2.7c-1.1,0.6-2.5,1-3.9,1
			s-2.8-0.3-3.9-1c-1.2-0.6-2.1-1.5-2.7-2.7c-0.7-1.2-1-2.6-1-4.2c0-1.6,0.3-3,1-4.2c0.7-1.2,1.6-2.1,2.7-2.7
			c1.2-0.6,2.5-0.9,3.9-0.9S774.2,749,775.3,749.6z M768.6,751c-0.9,0.4-1.5,1.1-2.1,2.1s-0.8,2.1-0.8,3.4c0,1.3,0.3,2.5,0.8,3.4
			c0.5,0.9,1.2,1.6,2.1,2c0.9,0.4,1.8,0.7,2.8,0.7c1,0,1.9-0.2,2.8-0.7s1.5-1.1,2.1-2c0.5-0.9,0.8-2,0.8-3.4c0-1.3-0.3-2.5-0.8-3.4
			s-1.2-1.6-2.1-2.1c-0.8-0.4-1.8-0.7-2.8-0.7C770.4,750.4,769.5,750.6,768.6,751z"/>
		<path class="st1" d="M804.7,750.3c1.1,1.1,1.6,2.8,1.6,5v8.9h-2v-8.8c0-1.6-0.4-2.9-1.2-3.8c-0.8-0.9-1.9-1.3-3.3-1.3
			c-1.5,0-2.7,0.5-3.5,1.5c-0.9,1-1.3,2.4-1.3,4.3v8.1h-1.9v-8.8c0-1.6-0.4-2.9-1.2-3.8c-0.8-0.9-1.9-1.3-3.3-1.3
			c-1.5,0-2.7,0.5-3.5,1.5c-0.9,1-1.3,2.4-1.3,4.3v8.1h-2v-15.3h2v3.6c0.4-1.3,1-2.3,2-2.9c1-0.7,2.1-1,3.4-1c1.3,0,2.5,0.4,3.5,1.1
			c1,0.7,1.6,1.8,2,3.1c0.4-1.4,1.1-2.4,2.2-3.1c1-0.7,2.2-1.1,3.5-1.1C802.2,748.6,803.6,749.1,804.7,750.3z"/>
		<path class="st1" d="M819.9,761.7c0.9-0.7,1.5-1.6,1.7-2.8h2.1c-0.3,1.6-1.1,2.9-2.3,3.9c-1.3,1-2.9,1.5-4.8,1.5
			c-1.5,0-2.7-0.3-3.9-0.9c-1.1-0.6-2-1.5-2.6-2.7s-1-2.6-1-4.2s0.3-3,1-4.2s1.5-2.1,2.6-2.7c1.1-0.6,2.4-0.9,3.9-0.9
			c1.5,0,2.8,0.3,3.9,0.9c1.1,0.6,1.9,1.5,2.5,2.5c0.6,1,0.9,2.2,0.9,3.4c0,0.5,0,1-0.1,1.4h-12.7c0,1.3,0.3,2.4,0.8,3.2
			c0.5,0.9,1.2,1.5,2,1.9c0.8,0.4,1.7,0.6,2.7,0.6C817.8,762.7,818.9,762.4,819.9,761.7z M813.8,750.9c-0.8,0.4-1.5,1-2,1.9
			c-0.5,0.8-0.8,1.9-0.8,3.2h10.8c0.1-1.3-0.1-2.3-0.6-3.2c-0.5-0.9-1.1-1.5-2-1.9c-0.8-0.4-1.7-0.6-2.7-0.6
			C815.5,750.2,814.6,750.5,813.8,750.9z"/>
	</g>
	<g id="Group_14" transform="translate(-16)">
		<g id="Path_10">
			<path class="st1" d="M858.9,727.6c-1.9-1-6.4-1.5-9.1-1.5h-8v24h8c2.6,0,7.2-0.5,9.1-1.5s3.6-8.1,3.6-10.5
				S860.8,728.6,858.9,727.6z M856.2,744.4c-1.5,1.5-3.8,2.3-6.7,2.3h-3.9v-17.1h3.8c2.9,0,5.1,0.7,6.7,2.3
				C859.2,735.5,859.2,740.8,856.2,744.4L856.2,744.4z"/>
		</g>
		<g id="Group_13">
			<g id="Path_11">
				<path class="st2" d="M848.2,732.3h4.4v3.4h5.7c3.4,0,6.2-2.8,6.2-6.2v-3.2h4.4v23.9h-4.4V746c0-3.4-2.8-6.2-6.2-6.2h-5.7v4.2
					h-4.4V732.3z"/>
			</g>
		</g>
	</g>
</g>
</svg>
