<svg xmlns="http://www.w3.org/2000/svg" width="140.316" height="81.32" viewBox="0 0 140.316 81.32"><path d="M62.6,104.362a1.007,1.007,0,0,1,1.008-1.013H78.128a1.014,1.014,0,0,1,0,2.027H63.6a1.011,1.011,0,0,1-1.008-1.014M121,97.919H20.315V30.474H121V97.919Zm20.021,6.939a2.712,2.712,0,0,0-2.707-2.716v-.193H123.954a2.106,2.106,0,0,0,1.246-1.923V28.362a2.1,2.1,0,0,0-2.1-2.107H18.216a2.1,2.1,0,0,0-2.1,2.107v71.663a2.11,2.11,0,0,0,1.245,1.923H3.414v.188a2.72,2.72,0,0,0,0,5.439h134.9a2.713,2.713,0,0,0,2.707-2.717" transform="translate(-0.708 -26.255)"/></svg>