<svg xmlns="http://www.w3.org/2000/svg" width="32" height="33.959" viewBox="0 0 32 33.959">
  <g id="pdf" transform="translate(-14.769)">
    <g id="Group_886" data-name="Group 886" transform="translate(14.769)">
      <g id="Group_885" data-name="Group 885">
        <path id="Path_527" data-name="Path 527" d="M46.586,9.19,37.935.2a.653.653,0,0,0-.471-.2H24.57a2.62,2.62,0,0,0-2.617,2.616v9.139H16.727a1.96,1.96,0,0,0-1.958,1.957v9.8a1.96,1.96,0,0,0,1.958,1.957h5.226v5.878a2.617,2.617,0,0,0,2.617,2.611H44.152a2.617,2.617,0,0,0,2.617-2.61V9.643A.653.653,0,0,0,46.586,9.19Zm-8.96-7.427,7.1,7.38h-7.1Zm-20.9,22.4a.652.652,0,0,1-.652-.651v-9.8a.652.652,0,0,1,.652-.651H34.362a.652.652,0,0,1,.652.651v9.8a.652.652,0,0,1-.652.651Zm28.736,7.186a1.309,1.309,0,0,1-1.311,1.3H24.57a1.31,1.31,0,0,1-1.311-1.305V25.469h11.1a1.96,1.96,0,0,0,1.958-1.957v-9.8a1.96,1.96,0,0,0-1.958-1.957h-11.1V2.616a1.312,1.312,0,0,1,1.311-1.31H36.32V9.8a.653.653,0,0,0,.653.653h8.49v20.9Z" transform="translate(-14.769 0)" fill="#2aabd4"/>
      </g>
    </g>
    <g id="Group_888" data-name="Group 888" transform="translate(18.604 15.941)">
      <g id="Group_887" data-name="Group 887">
        <path id="Path_528" data-name="Path 528" d="M76.568,240.979a1.471,1.471,0,0,0-.807-.549,6.592,6.592,0,0,0-1.347-.084H72.6v5.61h1.133V243.84h.739a6.464,6.464,0,0,0,1.175-.08,1.641,1.641,0,0,0,.587-.266,1.539,1.539,0,0,0,.476-.553,1.83,1.83,0,0,0,.188-.869A1.742,1.742,0,0,0,76.568,240.979Zm-.97,1.544a.743.743,0,0,1-.354.276,2.927,2.927,0,0,1-.9.088h-.62v-1.592h.547a5.44,5.44,0,0,1,.815.038.783.783,0,0,1,.455.249.725.725,0,0,1,.18.505A.754.754,0,0,1,75.6,242.523Z" transform="translate(-72.596 -240.346)" fill="#2aabd4"/>
      </g>
    </g>
    <g id="Group_890" data-name="Group 890" transform="translate(23.828 15.941)">
      <g id="Group_889" data-name="Group 889" transform="translate(0)">
        <path id="Path_529" data-name="Path 529" d="M155.865,241.879a2.451,2.451,0,0,0-.536-.909,1.876,1.876,0,0,0-.846-.517,4.042,4.042,0,0,0-1.068-.107h-2.07v5.61h2.131a3.425,3.425,0,0,0,1-.119,1.99,1.99,0,0,0,.8-.448,2.474,2.474,0,0,0,.6-.991,3.687,3.687,0,0,0,.172-1.194A4.14,4.14,0,0,0,155.865,241.879Zm-1.1,2.3a1.187,1.187,0,0,1-.3.541,1.045,1.045,0,0,1-.457.233,3.083,3.083,0,0,1-.685.054h-.846v-3.716h.509a5.133,5.133,0,0,1,.93.054,1.078,1.078,0,0,1,.524.264,1.284,1.284,0,0,1,.321.543,3.35,3.35,0,0,1,.115,1A3.659,3.659,0,0,1,154.763,244.182Z" transform="translate(-151.346 -240.346)" fill="#2aabd4"/>
      </g>
    </g>
    <g id="Group_892" data-name="Group 892" transform="translate(29.499 15.941)">
      <g id="Group_891" data-name="Group 891">
        <path id="Path_530" data-name="Path 530" d="M240.692,241.295v-.949h-3.846v5.61h1.133v-2.384h2.342v-.949h-2.342v-1.328Z" transform="translate(-236.846 -240.346)" fill="#2aabd4"/>
      </g>
    </g>
  </g>
</svg>
