<svg xmlns="http://www.w3.org/2000/svg" width="318.462" height="295.281" viewBox="0 0 318.462 295.281"><g transform="translate(0 17.174)"><g transform="translate(47.204 1.425)" opacity="0.3"><path d="M11.875-247.761a2.809,2.809,0,0,1,.555.286,37.772,37.772,0,0,1,2.736,2.847c2.538,2.792,5.472,5.7,8.628,8.549l1.507,1.348.325.833c.523,1.34,1.61,4.655,1.586,4.838a.227.227,0,0,1-.19.2,43.264,43.264,0,0,1-4.433-1.491c-1.285-.492-1.094-.333-3.172-2.657a100.587,100.587,0,0,0-8.644-8.494c-2.244-2-2.577-2.435-2.577-3.394.008-.539.246-.912,1.237-1.88.722-.706,1.015-.944,1.261-1.015A1.932,1.932,0,0,1,11.875-247.761Zm-.928,1.261a4.528,4.528,0,0,0-1.435,1.531,1.426,1.426,0,0,0,.032.571c.1.373.444.714,3.331,3.347,3.093,2.815,3.989,3.7,8.1,8l1.483,1.546.619.23c.349.127.666.246.722.262s.111-.048.143-.143a2.5,2.5,0,0,1,.92-.944c.285-.119.278-.182-.1-1.071-.222-.531-.3-.627-1.991-2.221-2.784-2.633-5.6-5.464-7.566-7.613-2.625-2.871-3.109-3.355-3.482-3.489C11.32-246.635,11.256-246.635,10.947-246.5Z" transform="translate(-8.195 247.87)"/></g><g transform="translate(32.134 153.166) rotate(103)" opacity="0.3"><path d="M21.618,26.637a3.96,3.96,0,0,1-.782-.4,53.241,53.241,0,0,1-3.856-4.013C13.4,18.288,9.267,14.185,4.818,10.173l-2.124-1.9L2.236,7.1C1.5,5.21-.033.537,0,.28A.32.32,0,0,1,.269,0,60.968,60.968,0,0,1,6.517,2.1c1.811.693,1.543.469,4.471,3.745A141.768,141.768,0,0,0,23.172,17.818C26.335,20.635,26.8,21.25,26.8,22.6c-.011.76-.347,1.285-1.744,2.649-1.017.995-1.431,1.33-1.777,1.431A2.724,2.724,0,0,1,21.618,26.637Zm1.308-1.777A6.381,6.381,0,0,0,24.949,22.7a2.01,2.01,0,0,0-.045-.8c-.134-.525-.626-1.006-4.695-4.717C15.851,13.213,14.588,11.961,8.8,5.9l-2.09-2.18L5.835,3.4C5.344,3.22,4.9,3.052,4.818,3.03s-.156.067-.2.2a3.52,3.52,0,0,1-1.3,1.33c-.4.168-.391.257.134,1.509.313.749.425.883,2.806,3.13,3.923,3.711,7.892,7.7,10.664,10.731,3.7,4.046,4.382,4.728,4.907,4.918C22.4,25.05,22.49,25.05,22.926,24.86Z" transform="translate(0 0)"/></g><path d="M21.032,18.12a6,6,0,0,1-8.482,0l-1.156-1.156L10.239,18.12A6,6,0,1,1,1.757,9.638L2.912,8.482,11.395,0l8.482,8.482,1.156,1.156a6,6,0,0,1,0,8.482Z" transform="translate(127.474 116.827) rotate(-167)" fill="none" stroke="lime" stroke-linecap="round" stroke-linejoin="round" stroke-width="2" opacity="0.3"/><path d="M12.962,11.167a3.7,3.7,0,0,1-5.227,0l-.712-.712-.712.712A3.7,3.7,0,1,1,1.083,5.939l.712-.712L7.022,0l5.227,5.227.712.712a3.7,3.7,0,0,1,0,5.227Z" transform="translate(178.51 27.517) rotate(163)" fill="none" stroke="lime" stroke-linecap="round" stroke-linejoin="round" stroke-width="2" opacity="0.3"/><path d="M21.032,18.12a6,6,0,0,1-8.482,0l-1.156-1.156L10.239,18.12A6,6,0,1,1,1.757,9.638L2.912,8.482,11.395,0l8.482,8.482,1.156,1.156a6,6,0,0,1,0,8.482Z" transform="translate(261.171 0.693) rotate(146)" fill="none" stroke="lime" stroke-linecap="round" stroke-linejoin="round" stroke-width="2" opacity="0.3"/><path d="M34.233,29.493a9.76,9.76,0,0,1-13.806,0l-1.881-1.881-1.881,1.881A9.762,9.762,0,1,1,2.859,15.687L4.74,13.806,18.546,0,32.352,13.806l1.881,1.881a9.76,9.76,0,0,1,0,13.806Z" transform="translate(317.074 255.976) rotate(146)" fill="none" stroke="lime" stroke-linecap="round" stroke-linejoin="round" stroke-width="2" opacity="0.3"/><path d="M34.233,29.493a9.76,9.76,0,0,1-13.806,0l-1.881-1.881-1.881,1.881A9.762,9.762,0,1,1,2.859,15.687L4.74,13.806,18.546,0,32.352,13.806l1.881,1.881a9.76,9.76,0,0,1,0,13.806Z" transform="translate(168.64 192.501) rotate(-161)" fill="none" stroke="lime" stroke-linecap="round" stroke-linejoin="round" stroke-width="2" opacity="0.3"/><path d="M21.032,18.12a6,6,0,0,1-8.482,0l-1.156-1.156L10.239,18.12A6,6,0,1,1,1.757,9.638L2.912,8.482,11.395,0l8.482,8.482,1.156,1.156a6,6,0,0,1,0,8.482Z" transform="translate(30.133 74.289) rotate(161)" fill="none" stroke="lime" stroke-linecap="round" stroke-linejoin="round" stroke-width="2" opacity="0.3"/><path d="M21.032,18.12a6,6,0,0,1-8.482,0l-1.156-1.156L10.239,18.12A6,6,0,1,1,1.757,9.638L2.912,8.482,11.395,0l8.482,8.482,1.156,1.156a6,6,0,0,1,0,8.482Z" transform="translate(84.645 243.278) rotate(161)" fill="none" stroke="lime" stroke-linecap="round" stroke-linejoin="round" stroke-width="2" opacity="0.3"/></g></svg>