<svg xmlns="http://www.w3.org/2000/svg" width="213.227" height="311.612" viewBox="0 0 213.227 311.612"><g transform="translate(-94.887 17.184)"><g transform="translate(242.991 16.925)" opacity="0.3"><path d="M23.279-247.763a2.764,2.764,0,0,0-.546.281,37.157,37.157,0,0,0-2.691,2.8c-2.5,2.745-5.381,5.608-8.485,8.407l-1.482,1.326-.32.819c-.515,1.318-1.583,4.578-1.56,4.757a.223.223,0,0,0,.187.195,42.546,42.546,0,0,0,4.36-1.466c1.263-.484,1.076-.328,3.12-2.613a98.913,98.913,0,0,1,8.5-8.353C26.57-243.575,26.9-244,26.9-244.948c-.008-.53-.242-.9-1.217-1.848-.71-.694-1-.928-1.24-1A1.9,1.9,0,0,0,23.279-247.763Zm.912,1.24a4.453,4.453,0,0,1,1.412,1.505,1.4,1.4,0,0,1-.031.562c-.094.367-.437.7-3.276,3.291-3.042,2.769-3.923,3.642-7.963,7.869l-1.458,1.521-.608.226c-.343.125-.655.242-.71.257s-.109-.047-.14-.14a2.456,2.456,0,0,0-.9-.928c-.281-.117-.273-.179.094-1.053.218-.523.3-.616,1.958-2.184,2.737-2.589,5.506-5.374,7.44-7.487,2.581-2.823,3.057-3.3,3.424-3.432C23.825-246.656,23.887-246.656,24.191-246.523Z" transform="translate(-8.195 247.87)"/></g><g transform="matrix(0.883, -0.469, 0.469, 0.883, 136.77, 147.853)" opacity="0.3"><path d="M15.084.107a2.764,2.764,0,0,0-.546.281,37.157,37.157,0,0,0-2.691,2.8c-2.5,2.745-5.381,5.608-8.485,8.407L1.88,12.921l-.32.819C1.045,15.058-.023,18.318,0,18.5a.223.223,0,0,0,.187.195,42.546,42.546,0,0,0,4.36-1.466c1.263-.484,1.076-.328,3.12-2.613a98.913,98.913,0,0,1,8.5-8.353C18.375,4.295,18.7,3.866,18.7,2.922c-.008-.53-.242-.9-1.217-1.848-.71-.694-1-.928-1.24-1A1.9,1.9,0,0,0,15.084.107ZM16,1.347a4.453,4.453,0,0,1,1.412,1.505,1.4,1.4,0,0,1-.031.562c-.094.367-.437.7-3.276,3.291-3.042,2.769-3.923,3.642-7.963,7.869L4.68,16.095l-.608.226c-.343.125-.655.242-.71.257s-.109-.047-.14-.14a2.456,2.456,0,0,0-.9-.928c-.281-.117-.273-.179.094-1.053.218-.523.3-.616,1.958-2.184C7.105,9.684,9.874,6.9,11.808,4.786c2.581-2.823,3.057-3.3,3.424-3.432C15.63,1.214,15.692,1.214,16,1.347Z"/></g><g transform="translate(302.185 160.223) rotate(77)" opacity="0.3"><path d="M21.26.151a3.894,3.894,0,0,0-.769.4A52.359,52.359,0,0,0,16.7,4.493c-3.518,3.869-7.585,7.9-11.96,11.85L2.65,18.211,2.2,19.365C1.474,21.223-.032,25.818,0,26.071a.315.315,0,0,0,.264.275,59.958,59.958,0,0,0,6.145-2.067c1.781-.682,1.517-.462,4.4-3.682A139.417,139.417,0,0,1,22.788,8.824c3.111-2.77,3.573-3.375,3.573-4.7-.011-.747-.341-1.264-1.715-2.605C23.645.535,23.239.206,22.9.107A2.679,2.679,0,0,0,21.26.151ZM22.546,1.9a6.275,6.275,0,0,1,1.99,2.122,1.976,1.976,0,0,1-.044.791c-.132.517-.616.989-4.617,4.639-4.287,3.9-5.529,5.133-11.223,11.091L6.6,22.685,5.739,23c-.484.176-.923.341-1,.363s-.154-.066-.2-.2a3.462,3.462,0,0,0-1.275-1.308c-.4-.165-.385-.253.132-1.484.308-.736.418-.868,2.759-3.078,3.858-3.649,7.761-7.574,10.487-10.553,3.638-3.979,4.309-4.65,4.826-4.837C22.029,1.712,22.117,1.712,22.546,1.9Z" transform="translate(0 0)"/></g><path d="M20.684,1.728a5.9,5.9,0,0,0-8.341,0L11.206,2.865,10.069,1.728A5.9,5.9,0,1,0,1.728,10.07l1.136,1.137,8.341,8.341,8.341-8.341,1.136-1.137a5.9,5.9,0,0,0,0-8.341Z" transform="translate(189.08 127.45) rotate(-13)" fill="none" stroke="lime" stroke-linecap="round" stroke-linejoin="round" stroke-width="2" opacity="0.3"/><path d="M12.747,1.065a3.634,3.634,0,0,0-5.141,0l-.7.7-.7-.7A3.635,3.635,0,1,0,1.065,6.206l.7.7,5.141,5.141,5.141-5.141.7-.7a3.634,3.634,0,0,0,0-5.141Z" transform="translate(165.088 -15.935) rotate(17)" fill="none" stroke="lime" stroke-linecap="round" stroke-linejoin="round" stroke-width="2" opacity="0.3"/><path d="M20.684,1.728a5.9,5.9,0,0,0-8.341,0L11.206,2.865,10.069,1.728A5.9,5.9,0,1,0,1.728,10.07l1.137,1.137,8.341,8.341,8.341-8.341,1.136-1.137a5.9,5.9,0,0,0,0-8.341Z" transform="translate(107.207 12) rotate(34)" fill="none" stroke="lime" stroke-linecap="round" stroke-linejoin="round" stroke-width="2" opacity="0.3"/><path d="M33.665,2.813a9.6,9.6,0,0,0-13.577,0l-1.85,1.85-1.85-1.85A9.6,9.6,0,1,0,2.812,16.39l1.85,1.85L18.239,31.817,31.816,18.24l1.85-1.85a9.6,9.6,0,0,0,0-13.577Z" transform="translate(198.504 39.31) rotate(34)" fill="none" stroke="lime" stroke-linecap="round" stroke-linejoin="round" stroke-width="2" opacity="0.3"/><path d="M33.665,2.813a9.6,9.6,0,0,0-13.577,0l-1.85,1.85-1.85-1.85A9.6,9.6,0,1,0,2.812,16.39l1.85,1.85L18.239,31.817,31.816,18.24l1.85-1.85a9.6,9.6,0,0,0,0-13.577Z" transform="translate(149.068 216.564) rotate(-19)" fill="none" stroke="lime" stroke-linecap="round" stroke-linejoin="round" stroke-width="2" opacity="0.3"/><path d="M20.684,1.728a5.9,5.9,0,0,0-8.341,0L11.206,2.865,10.069,1.728A5.9,5.9,0,1,0,1.728,10.07l1.137,1.137,8.341,8.341,8.341-8.341,1.136-1.137a5.9,5.9,0,0,0,0-8.341Z" transform="translate(284.846 70.099) rotate(19)" fill="none" stroke="lime" stroke-linecap="round" stroke-linejoin="round" stroke-width="2" opacity="0.3"/><path d="M20.684,1.728a5.9,5.9,0,0,0-8.341,0L11.206,2.865,10.069,1.728A5.9,5.9,0,1,0,1.728,10.07l1.137,1.137,8.341,8.341,8.341-8.341,1.136-1.137a5.9,5.9,0,0,0,0-8.341Z" transform="translate(221.588 267.378) rotate(19)" fill="none" stroke="lime" stroke-linecap="round" stroke-linejoin="round" stroke-width="2" opacity="0.3"/></g></svg>