<svg xmlns="http://www.w3.org/2000/svg" xmlns:xlink="http://www.w3.org/1999/xlink" viewBox="0 0 286.637 196.94"><defs><style>.a,.e,.g{fill:#2994ff;}.a,.c{opacity:0.3;}.b{fill:#fff;}.d{fill:none;stroke:#2994ff;stroke-width:2px;}.e{opacity:0.7;}.f{opacity:0.08;}.g{opacity:0.5;}.h{filter:url(#e);}.i{filter:url(#c);}.j{filter:url(#a);}</style><filter id="a" x="158.354" y="49.145" width="128.282" height="147.795" filterUnits="userSpaceOnUse"><feOffset dy="3" input="SourceAlpha"/><feGaussianBlur stdDeviation="7.5" result="b"/><feFlood flood-opacity="0.161"/><feComposite operator="in" in2="b"/><feComposite in="SourceGraphic"/></filter><filter id="c" x="0" y="49.145" width="128.282" height="147.795" filterUnits="userSpaceOnUse"><feOffset dy="3" input="SourceAlpha"/><feGaussianBlur stdDeviation="7.5" result="d"/><feFlood flood-opacity="0.161"/><feComposite operator="in" in2="d"/><feComposite in="SourceGraphic"/></filter><filter id="e" x="58.97" y="0" width="156.435" height="192.462" filterUnits="userSpaceOnUse"><feOffset dy="3" input="SourceAlpha"/><feGaussianBlur stdDeviation="7.5" result="f"/><feFlood flood-opacity="0.161"/><feComposite operator="in" in2="f"/><feComposite in="SourceGraphic"/></filter></defs><g transform="translate(-768.118 -200.933)"><path class="a" d="M4.326,9.934V6.89H1.282a1.282,1.282,0,0,1,0-2.563H4.326V1.282a1.282,1.282,0,0,1,2.563,0V4.326H9.934a1.282,1.282,0,1,1,0,2.563H6.89V9.934a1.282,1.282,0,1,1-2.563,0Z" transform="translate(991.601 247.871) rotate(8)"/><g transform="translate(962.032 269.577) rotate(8)"><g class="j" transform="matrix(0.99, -0.14, 0.14, 0.99, -201.58, -40.99)"><rect class="b" width="70.913" height="93.839" rx="6" transform="translate(193.91 68.64) rotate(8)"/></g><g class="c" transform="translate(13.596 53.584)"><line class="d" x2="44.11" transform="translate(0 0)"/><line class="d" x2="44.11" transform="translate(0 8.531)"/><line class="d" x2="44.11" transform="translate(0 17.595)"/><line class="d" x2="44.11" transform="translate(0 26.659)"/></g><rect class="a" width="43.797" height="17.823" rx="8.912" transform="translate(13.863 21.099)"/></g><g transform="translate(790.618 279.446) rotate(-8)"><g class="i" transform="matrix(0.99, 0.14, -0.14, 0.99, -11.35, -80.88)"><rect class="b" width="70.913" height="93.839" rx="6" transform="translate(22.5 78.51) rotate(-8)"/></g><g class="c" transform="translate(13.596 53.584)"><line class="d" x2="44.11" transform="translate(0 0)"/><line class="d" x2="44.11" transform="translate(0 8.531)"/><line class="d" x2="44.11" transform="translate(0 17.595)"/><line class="d" x2="44.11" transform="translate(0 26.659)"/></g><rect class="a" width="24.526" height="24.526" transform="translate(13.863 14.396)"/></g><g transform="translate(849.588 220.433)"><g class="h" transform="matrix(1, 0, 0, 1, -81.47, -19.5)"><rect class="b" width="111.434" height="147.462" rx="6" transform="translate(81.47 19.5)"/></g><g class="c" transform="translate(21.365 84.204)"><line class="d" x2="69.315" transform="translate(0)"/><line class="d" x2="69.315" transform="translate(0 13.406)"/><line class="d" x2="69.315" transform="translate(0 27.649)"/><line class="d" x2="69.315" transform="translate(0 41.893)"/></g><rect class="a" width="38.541" height="38.541" rx="19.271" transform="translate(21.784 22.622)"/></g><path class="e" d="M11.311,25.973v-7.96H3.352a3.351,3.351,0,1,1,0-6.7h7.96V3.352a3.351,3.351,0,1,1,6.7,0v7.96h7.96a3.351,3.351,0,1,1,0,6.7h-7.96v7.96a3.351,3.351,0,1,1-6.7,0Z" transform="translate(922.9 202)"/><ellipse class="f" cx="53.622" cy="2.514" rx="53.622" ry="2.514" transform="translate(852.101 388.841)"/><path class="g" d="M6.948,15.955v-4.89H2.058a2.059,2.059,0,0,1,0-4.118h4.89V2.058a2.059,2.059,0,0,1,4.118,0v4.89h4.89a2.059,2.059,0,0,1,0,4.118h-4.89v4.89a2.059,2.059,0,0,1-4.118,0Z" transform="translate(827.894 258.64) rotate(-8)"/></g></svg>