<svg xmlns="http://www.w3.org/2000/svg" viewBox="0 0 1920 181.877"><defs><style>.a,.g,.h{fill:#00b9ff;}.a{opacity:0.2;}.b{opacity:0.7;}.c{fill:#ccf1ff;}.c,.d,.e{stroke:#fff;}.d{fill:#a0e3fc;}.e{fill:#bcebfc;}.f,.j{fill:none;}.f{stroke:#00b9ff;}.g{font-size:8px;font-family:SegoeUI, Segoe UI;}.i{stroke:none;}</style></defs><g transform="translate(0.001 -941.124)"><path class="a" d="M-7694,3247.089H-9614V3144.1c15.68,3.89,41.382,9.93,74.795,16.608,38.037,7.6,77.845,14.4,118.318,20.222,50.862,7.309,102.811,13.058,154.4,17.086,29.426,2.295,59.173,4.063,88.416,5.256,31.59,1.287,63.434,1.94,94.648,1.94,37.135,0,74.446-.921,110.9-2.739,19.249-.96,38.592-2.183,57.492-3.635,19.512-1.5,39.245-3.3,58.652-5.341,103.052-10.864,194.282-22.342,278.905-35.09,72.676-10.951,127.2-20.809,175.313-29.505h.007l.039-.007.022,0,.119-.022.01,0,.02,0,.054-.012.024,0,.056-.01.119-.021.019,0c39.916-7.215,74.39-13.446,108.405-18.248,17.987-2.538,34.851-4.539,51.552-6.116,18.193-1.716,36.278-2.944,55.287-3.752,10.761-.459,22.691-.692,35.458-.692,40.652,0,91.233,2.367,150.338,7.035,47.272,3.732,100.087,8.939,156.978,15.477,50.782,5.838,95.224,11.641,123.565,15.48,8.814,1.194,17.592,2.405,26.089,3.6v105.5Z" transform="translate(9614 -2124.088)"/><path class="a" d="M-7694,3226.507H-9614v-59.973c13.654.2,27.927.309,42.422.309,93.258,0,269.363-4.3,401-33.116a1446.216,1446.216,0,0,1,166.829-25.882c26.879-2.643,54.181-4.648,81.147-5.957,25.709-1.251,51.377-1.886,76.291-1.886,34.155,0,66.33,1.173,95.631,3.487,14.147,1.117,27.565,2.5,39.883,4.123,12.249,1.613,23.477,3.463,33.372,5.5,39.191,8.046,104.954,15.461,185.175,20.877,40.329,2.726,82.934,4.856,126.63,6.33,45.6,1.541,91.2,2.322,135.521,2.322,37.672,0,74.225-.57,108.643-1.693,17.491-.571,35.929-.86,54.8-.86,44.672,0,93.333,1.617,144.632,4.807,40.948,2.545,83.714,6.1,127.109,10.575,38.549,3.972,70.414,7.943,90.356,10.575,3.862.51,7.315.973,10.558,1.416v59.05Z" transform="translate(9614 -2103.506)"/><g transform="translate(0 149)"><g class="b" transform="matrix(0.996, 0.087, -0.087, 0.996, 517.584, 53.349)"><g class="c" transform="translate(1170.216 650.355)"><rect class="i" width="11.649" height="11.649"/><rect class="j" x="0.5" y="0.5" width="10.649" height="10.649"/></g><g class="c" transform="translate(1181.864 650.355)"><rect class="i" width="11.649" height="11.649"/><rect class="j" x="0.5" y="0.5" width="10.649" height="10.649"/></g><g class="c" transform="translate(1176.04 638.706)"><rect class="i" width="11.649" height="11.649"/><rect class="j" x="0.5" y="0.5" width="10.649" height="10.649"/></g><g class="c" transform="translate(1193.513 650.355)"><rect class="i" width="11.649" height="11.649"/><rect class="j" x="0.5" y="0.5" width="10.649" height="10.649"/></g><g class="c" transform="translate(1187.689 638.706)"><rect class="i" width="11.649" height="11.649"/><rect class="j" x="0.5" y="0.5" width="10.649" height="10.649"/></g><g class="c" transform="translate(1205.162 650.355)"><rect class="i" width="11.649" height="11.649"/><rect class="j" x="0.5" y="0.5" width="10.649" height="10.649"/></g><g class="c" transform="translate(1199.338 638.706)"><rect class="i" width="11.649" height="11.649"/><rect class="j" x="0.5" y="0.5" width="10.649" height="10.649"/></g><path class="d" d="M8786.581,737.633h87.973s-6.091,17.744-12.456,20.4-70.066,0-70.066,0Z" transform="translate(-7624 -75.824)"/><g class="d" transform="translate(1225.282 653.532)"><rect class="i" width="17.473" height="8.472"/><rect class="j" x="0.5" y="0.5" width="16.473" height="7.472"/></g><g class="d" transform="translate(1225.282 635)"><rect class="i" width="12.708" height="18.532"/><rect class="j" x="0.5" y="0.5" width="11.708" height="17.532"/></g></g><g transform="matrix(0.996, -0.087, 0.087, 0.996, 157.202, 76.242)"><g class="c" transform="matrix(0.966, -0.259, 0.259, 0.966, 427.427, 808.05)"><rect class="i" width="14" height="14"/><rect class="j" x="0.5" y="0.5" width="13" height="13"/></g><path class="e" d="M10280.683,805.438s1.092,10.1-7.641,10.917-31.387,0-31.387,0-4.914-6.823-2.184-8.461S10280.683,805.438,10280.683,805.438Z" transform="translate(-9788 2.306)"/><path class="f" d="M10106.092,810.032V785.337h19.411l-2.873,8.869-16.538,3.276" transform="translate(-9642 -0.337)"/><text class="g" transform="translate(472 793)"><tspan x="-6.729" y="0">Cicero</tspan></text><path class="f" d="M10071.928,809.973s-3.335,2.093,1.018,1.73,13.71-3.554,12.259-4.062a11.352,11.352,0,0,1-2.031-.87l1.421-2.21" transform="translate(-9642 3)"/><path class="f" d="M10083.608,806.695l13.782-3.7.8,3.99" transform="translate(-9642 3)"/><circle class="h" cx="2.5" cy="2.5" r="2.5" transform="matrix(0.695, -0.719, 0.719, 0.695, 472.965, 802.562)"/><path class="h" d="M4.5,0C6.252,0,8.646,2.748,8.646,2.748L.267,2.969S2.442,0,4.5,0Z" transform="translate(472 806)"/><path class="f" d="M10087.1,807.294l-3.906-.558" transform="translate(-9642 3)"/></g><g class="c" transform="translate(809.256 905.318) rotate(14)"><rect class="i" width="14" height="14"/><rect class="j" x="0.5" y="0.5" width="13" height="13"/></g><g class="c" transform="translate(1268.256 835.318) rotate(14)"><rect class="i" width="14" height="14"/><rect class="j" x="0.5" y="0.5" width="13" height="13"/></g></g></g></svg>
