<svg xmlns="http://www.w3.org/2000/svg" xmlns:xlink="http://www.w3.org/1999/xlink" viewBox="0 0 331.434 196.836"><defs><style>.a,.f{fill:#2994ff;}.a,.c{opacity:0.3;}.b{fill:#fff;}.d{fill:none;stroke:#2994ff;stroke-width:2px;}.e{opacity:0.08;}.f{opacity:0.7;}.g{fill:#bddeff;}.h{filter:url(#e);}.i{filter:url(#c);}.j{filter:url(#a);}</style><filter id="a" x="176.711" y="32.851" width="154.723" height="154.124" filterUnits="userSpaceOnUse"><feOffset dy="3" input="SourceAlpha"/><feGaussianBlur stdDeviation="7.5" result="b"/><feFlood flood-opacity="0.161"/><feComposite operator="in" in2="b"/><feComposite in="SourceGraphic"/></filter><filter id="c" x="0" y="33.842" width="145.629" height="144.919" filterUnits="userSpaceOnUse"><feOffset dy="3" input="SourceAlpha"/><feGaussianBlur stdDeviation="7.5" result="d"/><feFlood flood-opacity="0.161"/><feComposite operator="in" in2="d"/><feComposite in="SourceGraphic"/></filter><filter id="e" x="62.391" y="25.965" width="202.189" height="156.784" filterUnits="userSpaceOnUse"><feOffset dy="3" input="SourceAlpha"/><feGaussianBlur stdDeviation="7.5" result="f"/><feFlood flood-opacity="0.161"/><feComposite operator="in" in2="f"/><feComposite in="SourceGraphic"/></filter></defs><g transform="translate(-769.221 -433.637)"><rect class="a" width="3.799" height="16.621" rx="1.9" transform="translate(829.611 469.847) rotate(-11)"/><rect class="a" width="3.799" height="16.621" rx="1.9" transform="translate(841.141 473.612) rotate(79)"/><g transform="translate(988.865 485.988) rotate(13)"><g class="j" transform="matrix(0.97, -0.22, 0.22, 0.97, -225.79, -1.6)"><rect class="b" width="91.637" height="90.838" rx="6" transform="translate(219.64 52.35) rotate(13)"/></g><g class="c" transform="translate(37.306 20.727)"><line class="d" x2="41.352" transform="translate(0 0)"/><path class="d" d="M0,0H17.772" transform="translate(0 6.305)"/></g><g class="c" transform="translate(11.948 55.265)"><line class="d" x2="41.352" transform="translate(0 0)"/><path class="d" d="M0,0H17.772" transform="translate(23.848 6.305)"/></g><rect class="a" width="15.247" height="15.247" rx="7.624" transform="translate(12.158 16.958)"/><rect class="a" width="15.247" height="15.247" rx="7.624" transform="translate(62.32 51.497)"/></g><g transform="matrix(0.995, -0.105, 0.105, 0.995, 791.721, 496.558)"><g class="i" transform="matrix(0.99, 0.1, -0.1, 0.99, -15.8, -64.93)"><rect class="b" width="91.637" height="90.838" rx="6" transform="matrix(0.99, -0.1, 0.1, 0.99, 22.5, 62.92)"/></g><g class="c" transform="translate(37.306 20.726)"><line class="d" x2="41.352" transform="translate(0 0)"/><path class="d" d="M0,0H17.772" transform="translate(0 6.305)"/></g><g class="c" transform="translate(11.948 55.265)"><line class="d" x2="41.352" transform="translate(0 0)"/><path class="d" d="M0,0H17.772" transform="translate(23.848 6.305)"/></g><rect class="a" width="15.247" height="15.247" rx="7.624" transform="translate(12.158 16.958)"/><rect class="a" width="15.247" height="15.247" rx="7.624" transform="translate(62.32 51.497)"/></g><ellipse class="e" cx="79.467" cy="3.725" rx="79.467" ry="3.725" transform="translate(854.105 623.023)"/><g transform="matrix(0.995, -0.105, 0.105, 0.995, 842.791, 480.491)"><g class="h" transform="matrix(0.99, 0.1, -0.1, 0.99, -68.27, -54.29)"><rect class="b" width="109.09" height="155.31" rx="12" transform="matrix(-0.02, 1, -1, -0.02, 242.08, 48.17)"/></g></g><g transform="translate(958.834 433.637)"><rect class="f" width="9.933" height="43.459" rx="4.967" transform="translate(16.763 0)"/><rect class="f" width="9.933" height="43.459" rx="4.967" transform="translate(43.459 16.763) rotate(90)"/></g><path class="g" d="M23.581,5.359a7.018,7.018,0,0,1,2.227.234L84.213,57.125l74.732-35.157a8.088,8.088,0,0,1,2.931,1.092,10.422,10.422,0,0,1,2.393,2.391L83.607,62.894,20.235,6.753l1.446-.741A4.935,4.935,0,0,1,23.581,5.359Z" transform="matrix(0.995, -0.105, 0.105, 0.995, 840.791, 476.491)"/></g></svg>