<svg xmlns="http://www.w3.org/2000/svg" width="70.509" height="70.509" viewBox="0 0 70.509 70.509"><defs><style>.a{fill:#00b4f1;}</style></defs><path class="a" d="M31.843,191.921a15.921,15.921,0,1,0-15.921,15.921A15.939,15.939,0,0,0,31.843,191.921Zm-29.568,0a13.647,13.647,0,1,1,13.647,13.647A13.662,13.662,0,0,1,2.274,191.921Z" transform="translate(0 -150.981)"/><path class="a" d="M78.823,230.745v-2.332a5.1,5.1,0,0,0-.569-10.177H77.118a2.843,2.843,0,1,1,0-5.686h1.137a2.846,2.846,0,0,1,2.843,2.843v.569h2.274v-.569a5.106,5.106,0,0,0-4.549-5.06V208H76.549v2.332a5.1,5.1,0,0,0,.569,10.177h1.137a2.843,2.843,0,1,1,0,5.686H77.118a2.846,2.846,0,0,1-2.843-2.843v-.569H72v.569a5.106,5.106,0,0,0,4.549,5.06v2.332Z" transform="translate(-61.765 -178.432)"/><path class="a" d="M106.274,9.1h36.392v2.274h2.274V5.686A5.693,5.693,0,0,0,139.254,0H109.686A5.693,5.693,0,0,0,104,5.686V22.745h2.274Zm0-3.412a3.416,3.416,0,0,1,3.412-3.412h29.568a3.416,3.416,0,0,1,3.412,3.412V6.823H106.274Z" transform="translate(-89.216)"/><path class="a" d="M104,421.686a5.693,5.693,0,0,0,5.686,5.686h29.568a5.693,5.693,0,0,0,5.686-5.686V416H104Zm2.274-3.412h36.392v3.412a3.416,3.416,0,0,1-3.412,3.412H109.686a3.416,3.416,0,0,1-3.412-3.412Z" transform="translate(-89.216 -356.864)"/><rect class="a" width="8" height="2" transform="translate(31.254 63.254)"/><path class="a" d="M231.8,96H195.412A3.416,3.416,0,0,0,192,99.412v10.235h40.941v12.51a1.138,1.138,0,0,1-1.137,1.137h-32.98v2.274H231.8a3.416,3.416,0,0,0,3.412-3.412V99.412A3.416,3.416,0,0,0,231.8,96Zm1.137,11.372H194.274v-4.549h38.666Zm0-6.823H194.274V99.412a1.138,1.138,0,0,1,1.137-1.137H231.8a1.138,1.138,0,0,1,1.137,1.137Z" transform="translate(-164.706 -82.353)"/><path class="a" d="M359.961,215.526a4.549,4.549,0,1,0,0-5.955,4.549,4.549,0,1,0,0,5.955Zm3.412-5.252a2.274,2.274,0,1,1-2.274,2.274A2.277,2.277,0,0,1,363.372,210.274Zm-9.1,2.274a2.274,2.274,0,1,1,2.274,2.274A2.277,2.277,0,0,1,354.274,212.549Z" transform="translate(-301.962 -178.432)"/><rect class="a" width="2" height="12" transform="translate(53.254 45.254)"/><rect class="a" width="2" height="2" transform="translate(34.254 45.254)"/><rect class="a" width="2" height="2" transform="translate(39.254 45.254)"/><rect class="a" width="2" height="2" transform="translate(43.254 45.254)"/></svg>