<svg xmlns="http://www.w3.org/2000/svg" width="32" height="33.959" viewBox="0 0 32 33.959">
  <g id="doc" transform="translate(-14.769)">
    <g id="Group_894" data-name="Group 894" transform="translate(14.769)">
      <g id="Group_893" data-name="Group 893">
        <path id="Path_531" data-name="Path 531" d="M46.586,9.19,37.935.2a.653.653,0,0,0-.471-.2H24.57a2.62,2.62,0,0,0-2.617,2.616v9.139H16.727a1.96,1.96,0,0,0-1.958,1.957v9.8a1.96,1.96,0,0,0,1.958,1.957h5.226v5.878a2.617,2.617,0,0,0,2.617,2.611H44.152a2.617,2.617,0,0,0,2.617-2.61V9.643A.653.653,0,0,0,46.586,9.19Zm-8.96-7.427,7.1,7.38h-7.1Zm-20.9,22.4a.652.652,0,0,1-.652-.651v-9.8a.652.652,0,0,1,.652-.651H34.362a.652.652,0,0,1,.652.651v9.8a.652.652,0,0,1-.652.651Zm28.736,7.186a1.309,1.309,0,0,1-1.311,1.3H24.57a1.31,1.31,0,0,1-1.311-1.305V25.469h11.1a1.96,1.96,0,0,0,1.958-1.957v-9.8a1.96,1.96,0,0,0-1.958-1.957h-11.1V2.616a1.312,1.312,0,0,1,1.311-1.31H36.32V9.8a.653.653,0,0,0,.653.653h8.49Z" transform="translate(-14.769 0)" fill="#2aabd4"/>
      </g>
    </g>
    <g id="Group_896" data-name="Group 896" transform="translate(17.948 15.941)">
      <g id="Group_895" data-name="Group 895">
        <path id="Path_532" data-name="Path 532" d="M67.213,241.879a2.45,2.45,0,0,0-.536-.909,1.875,1.875,0,0,0-.846-.517,4.036,4.036,0,0,0-1.068-.107h-2.07v5.61h2.131a3.42,3.42,0,0,0,1-.119,1.991,1.991,0,0,0,.8-.448,2.474,2.474,0,0,0,.6-.991,3.688,3.688,0,0,0,.172-1.194A4.143,4.143,0,0,0,67.213,241.879Zm-1.1,2.3a1.186,1.186,0,0,1-.3.541,1.045,1.045,0,0,1-.457.233,3.084,3.084,0,0,1-.685.054h-.846V241.3h.509a5.132,5.132,0,0,1,.93.054,1.08,1.08,0,0,1,.524.264,1.284,1.284,0,0,1,.321.544,3.349,3.349,0,0,1,.115,1A3.653,3.653,0,0,1,66.111,244.183Z" transform="translate(-62.694 -240.347)" fill="#2aabd4"/>
      </g>
    </g>
    <g id="Group_898" data-name="Group 898" transform="translate(29.508 15.846)">
      <g id="Group_897" data-name="Group 897">
        <path id="Path_533" data-name="Path 533" d="M240.769,242.547a1.667,1.667,0,0,1-.467.9,1.134,1.134,0,0,1-.777.287,1.243,1.243,0,0,1-.995-.451,2.353,2.353,0,0,1-.383-1.515,2.194,2.194,0,0,1,.388-1.45,1.276,1.276,0,0,1,1.012-.448,1.159,1.159,0,0,1,1.182.941l1.121-.268a2.213,2.213,0,0,0-.574-1.033,2.334,2.334,0,0,0-1.672-.608,2.48,2.48,0,0,0-1.9.775,3.067,3.067,0,0,0-.723,2.175,2.921,2.921,0,0,0,.72,2.087,2.643,2.643,0,0,0,3.327.318,2.463,2.463,0,0,0,.84-1.364Z" transform="translate(-236.981 -238.904)" fill="#2aabd4"/>
      </g>
    </g>
    <g id="Group_900" data-name="Group 900" transform="translate(23.381 15.846)">
      <g id="Group_899" data-name="Group 899" transform="translate(0)">
        <path id="Path_534" data-name="Path 534" d="M149.313,239.673a2.634,2.634,0,0,0-1.984-.769,3.081,3.081,0,0,0-1.209.222,2.183,2.183,0,0,0-.725.505,2.639,2.639,0,0,0-.522.769,3.567,3.567,0,0,0-.256,1.439,2.9,2.9,0,0,0,.738,2.1,2.641,2.641,0,0,0,1.99.763,2.613,2.613,0,0,0,1.975-.767,3.437,3.437,0,0,0-.006-4.265Zm-.861,3.576a1.513,1.513,0,0,1-2.229,0,2.626,2.626,0,0,1-.012-2.893,1.566,1.566,0,0,1,2.252-.006,2.109,2.109,0,0,1,.423,1.439A2.144,2.144,0,0,1,148.452,243.249Z" transform="translate(-144.616 -238.904)" fill="#2aabd4"/>
      </g>
    </g>
  </g>
</svg>
