<svg xmlns="http://www.w3.org/2000/svg" width="33.573" height="36.418" viewBox="0 0 33.573 36.418">
  <g id="XMLID_809_" transform="translate(-20 0.001)">
    <g id="XMLID_29_" transform="translate(20 -0.001)">
      <path id="XMLID_40_" d="M224.418,56a2.418,2.418,0,1,0,2.418,2.418A2.421,2.421,0,0,0,224.418,56Zm0,3.414a1,1,0,1,1,1-1A1,1,0,0,1,224.418,59.414Z" transform="translate(-207.632 -52.017)" fill="#00b4f1"/>
      <path id="XMLID_57_" d="M52.862,14.794a.711.711,0,0,0,.711-.711v-3.13a.71.71,0,0,0-.329-.6h0L37.169.111a.711.711,0,0,0-.764,0L20.329,10.353a.711.711,0,0,0-.329.6h0v3.13a.711.711,0,0,0,.711.711h1.707V28.736h-.285a.711.711,0,0,0-.711.711v2.418h-.711a.711.711,0,0,0-.711.711v3.13a.711.711,0,0,0,.711.711H52.862a.711.711,0,0,0,.711-.711v-3.13a.711.711,0,0,0-.711-.711h-.711V29.447a.711.711,0,0,0-.711-.711h-.285V14.794ZM36.787,1.554l13.635,8.688H23.151ZM21.423,11.665H52.151v1.707H21.423Zm2.418,3.13h1.707v3.77a.711.711,0,1,0,1.423,0v-3.77H46.6V28.736h-5.69V21.765a4.126,4.126,0,0,0-8.251,0v6.971h-5.69v-3.77a.711.711,0,1,0-1.423,0v3.77H23.841ZM39.489,28.736H34.084V21.765a2.7,2.7,0,0,1,5.406,0Zm12.661,6.259H21.423V33.288H52.151Zm-29.305-3.13V30.158H50.728v1.707Zm26.887-3.13H48.025V14.794h1.707Z" transform="translate(-20 0.001)" fill="#00b4f1"/>
      <path id="XMLID_1092_" d="M98.711,297.423a.712.712,0,1,0-.5-.208A.717.717,0,0,0,98.711,297.423Z" transform="translate(-92.452 -274.946)" fill="#00b4f1"/>
    </g>
  </g>
</svg>
