<svg id="drag" xmlns="http://www.w3.org/2000/svg" width="100" height="100" viewBox="0 0 100 100">
                <g id="Group_589" data-name="Group 589">
                    <path id="Path_311" data-name="Path 311" d="M210,160v6.25h12.5V222.5H166.25V210H160v18.75h68.75V160Z" transform="translate(-128.75 -128.75)" fill="#f3f5f6"></path>
                    <rect id="Rectangle_390" data-name="Rectangle 390" width="6.25" height="6.25" transform="translate(62.5)" fill="#f3f5f6"></rect>
                    <rect id="Rectangle_391" data-name="Rectangle 391" width="6.25" height="6.25" transform="translate(12.5)" fill="#f3f5f6"></rect>
                    <rect id="Rectangle_392" data-name="Rectangle 392" width="6.25" height="6.25" transform="translate(25)" fill="#f3f5f6"></rect>
                    <rect id="Rectangle_393" data-name="Rectangle 393" width="6.25" height="6.25" transform="translate(12.5 62.5)" fill="#f3f5f6"></rect>
                    <rect id="Rectangle_394" data-name="Rectangle 394" width="6.25" height="6.25" transform="translate(37.5)" fill="#f3f5f6"></rect>
                    <rect id="Rectangle_395" data-name="Rectangle 395" width="6.25" height="6.25" transform="translate(50)" fill="#f3f5f6"></rect>
                    <rect id="Rectangle_396" data-name="Rectangle 396" width="6.25" height="6.25" fill="#f3f5f6"></rect>
                    <rect id="Rectangle_397" data-name="Rectangle 397" width="6.25" height="6.25" transform="translate(0 37.5)" fill="#f3f5f6"></rect>
                    <rect id="Rectangle_398" data-name="Rectangle 398" width="6.25" height="6.25" transform="translate(0 50)" fill="#f3f5f6"></rect>
                    <rect id="Rectangle_399" data-name="Rectangle 399" width="6.25" height="6.25" transform="translate(0 25)" fill="#f3f5f6"></rect>
                    <rect id="Rectangle_400" data-name="Rectangle 400" width="6.25" height="6.25" transform="translate(0 12.5)" fill="#f3f5f6"></rect>
                    <rect id="Rectangle_401" data-name="Rectangle 401" width="6.25" height="6.25" transform="translate(62.5 12.5)" fill="#f3f5f6"></rect>
                    <rect id="Rectangle_402" data-name="Rectangle 402" width="6.25" height="6.25" transform="translate(0 62.5)" fill="#f3f5f6"></rect>
                    <path id="Path_312" data-name="Path 312" d="M126.92,150.589l8.1,8.106,28.728-28.728-8.319-8.316L151,108.383,135.758,93.136,104.936,105.83a9.375,9.375,0,0,0-5.1,12.237q.1.239.21.473l-.375.378a12.5,12.5,0,0,0,0,17.678h0l11.781,11.784Zm-24.666-22.831a6.206,6.206,0,0,1,1.831-4.419l11.05,11.05,4.419-4.422L106.3,116.708a3.125,3.125,0,0,1,1.019-5.1l26.972-11.1,11.25,11.25,4.419,13.259,4.944,4.941-19.891,19.891-5.156-5.156-15.466-2.209-10.312-10.312A6.2,6.2,0,0,1,102.255,127.758Z" transform="translate(-77.255 -74.945)" fill="#f3f5f6"></path>
                </g>
            </svg>