<svg xmlns="http://www.w3.org/2000/svg" width="38" height="38" viewBox="0 0 38 38"><g transform="translate(13958 7682)"><g transform="translate(-13958 -7682)" fill="#fff" stroke="#707070" stroke-width="1" opacity="0"><rect width="38" height="38" stroke="none"/><rect x="0.5" y="0.5" width="37" height="37" fill="none"/></g><g transform="translate(-13951 -7675)"><path d="M0,0H24V24H0Z" fill="none"/><path d="M4,3H20a1,1,0,0,1,1,1V20a1,1,0,0,1-1,1H4a1,1,0,0,1-1-1V4A1,1,0,0,1,4,3ZM5,5V19H19V5Zm6,11L6.76,11.757l1.414-1.414L11,13.172l5.656-5.657,1.415,1.414Z" fill="#666"/></g></g></svg>