<svg xmlns="http://www.w3.org/2000/svg" width="360" height="118" viewBox="0 0 360 118"><defs><style>.a{fill:#f0f0f0;}.b{fill:#f9f8f8;}.c{opacity:0.5;}.d,.e,.k{fill:none;}.d,.e,.h{stroke:#707070;}.d{stroke-dasharray:3;}.f,.i{fill:#fff;}.f{stroke:#ccc;}.g{fill:#030303;opacity:0.3;}.h{fill:#e6e6e6;opacity:0.54;}.h,.i{stroke-dasharray:3 2;}.i{stroke:#848484;}.j{stroke:none;}</style></defs><g transform="translate(-804 -423)"><ellipse class="a" cx="149" cy="8" rx="149" ry="8" transform="translate(866 525)"/><rect class="b" width="172" height="108" rx="3" transform="translate(930 423)"/><g class="c" transform="matrix(0.485, -0.875, 0.875, 0.485, 90.322, 1128.255)"><path class="d" d="M4857.363,6180.617c5.78,5.353,10.238,13.528,10.032,25.6" transform="translate(-3862 -5807)"/><path class="e" d="M4867.825,6209.164l4.291,4.291,4.29-4.291" transform="translate(-3866.417 -5814.11)"/></g><g transform="translate(396 168)"><g transform="translate(0 -10)"><g class="f" transform="translate(408 299)"><rect class="j" width="93" height="19" rx="3"/><rect class="k" x="0.5" y="0.5" width="92" height="18" rx="2.5"/></g><path class="g" d="M199.539,49l-2.15,3.143L195.539,49Z" transform="translate(296 257)"/></g></g><g transform="translate(396 133)"><g class="f" transform="translate(408 299)"><rect class="j" width="93" height="19" rx="3"/><rect class="k" x="0.5" y="0.5" width="92" height="18" rx="2.5"/></g></g><g class="h" transform="translate(940 433)"><rect class="j" width="88" height="88" rx="3"/><rect class="k" x="0.5" y="0.5" width="87" height="87" rx="2.5"/></g><g class="i" transform="translate(947 440)"><rect class="j" width="74" height="20" rx="3"/><rect class="k" x="0.5" y="0.5" width="73" height="19" rx="2.5"/></g></g></svg>