<svg xmlns="http://www.w3.org/2000/svg" xmlns:xlink="http://www.w3.org/1999/xlink" width="328" height="164" viewBox="0 0 328 164"><defs><clipPath id="a"><rect width="328" height="164" fill="none"/></clipPath></defs><g clip-path="url(#a)"><g transform="translate(108 56)" fill="#fff" stroke="#ccc" stroke-width="1"><rect width="220" height="108" rx="3" stroke="none"/><rect x="0.5" y="0.5" width="219" height="107" rx="2.5" fill="none"/></g><path d="M4828.26,6168.9s45.867,2.1,45.167,43.065" transform="translate(-4742 -6164)" fill="none" stroke="#707070" stroke-width="1"/><path d="M4867.825,6209.164l4.952,4.952,4.952-4.952" transform="translate(-4741 -6166)" fill="none" stroke="#707070" stroke-width="1"/><g transform="translate(-408 -299)"><g transform="translate(408 299)" fill="#fff" stroke="#ccc" stroke-width="1"><rect width="93" height="19" rx="3" stroke="none"/><rect x="0.5" y="0.5" width="92" height="18" rx="2.5" fill="none"/></g><path d="M199.539,49l-2.15,3.143L195.539,49Z" transform="translate(296 257)" fill="#030303"/></g><g transform="translate(118 66)" fill="#e6e6e6" stroke="#707070" stroke-width="1" stroke-dasharray="3 2" opacity="0.54"><rect width="88" height="88" rx="3" stroke="none"/><rect x="0.5" y="0.5" width="87" height="87" rx="2.5" fill="none"/></g><g transform="translate(124 73)" fill="#f2f9ff" stroke="#2994ff" stroke-width="1" stroke-dasharray="3 2"><rect width="78" height="20" rx="3" stroke="none"/><rect x="0.5" y="0.5" width="77" height="19" rx="2.5" fill="none"/></g></g></svg>