<svg xmlns="http://www.w3.org/2000/svg" xmlns:xlink="http://www.w3.org/1999/xlink" width="13.186" height="14" viewBox="0 0 13.186 14"><defs><clipPath id="a"><rect width="13.186" height="14" fill="none"/></clipPath></defs><g transform="translate(0)" clip-path="url(#a)"><path d="M9.173,16.711l.354,1.383A1.285,1.285,0,0,0,10.714,19h.955a1.285,1.285,0,0,0,1.187-.905l.354-1.383a.921.921,0,0,1,1.149-.648l1.4.392a1.3,1.3,0,0,0,1.4-.552l.478-.809a1.24,1.24,0,0,0-.209-1.458l-1.049-.99a.883.883,0,0,1,0-1.3l1.047-.99a1.239,1.239,0,0,0,.21-1.457l-.479-.809a1.3,1.3,0,0,0-1.4-.552l-1.4.392a.922.922,0,0,1-1.15-.648L12.856,5.9A1.285,1.285,0,0,0,11.67,5h-.955a1.285,1.285,0,0,0-1.187.905L9.174,7.287a.923.923,0,0,1-1.15.649l-1.4-.392a1.3,1.3,0,0,0-1.4.551L4.748,8.9a1.239,1.239,0,0,0,.21,1.458l1.047.988a.886.886,0,0,1,0,1.3l-1.049.99A1.24,1.24,0,0,0,4.747,15.1l.479.809a1.3,1.3,0,0,0,1.4.552l1.4-.392A.92.92,0,0,1,9.173,16.711Zm2.019-6.578A1.867,1.867,0,1,1,9.281,12,1.889,1.889,0,0,1,11.192,10.133Z" transform="translate(-4.598 -5)" fill="#707070"/></g></svg>