<svg xmlns="http://www.w3.org/2000/svg" width="38" height="38" viewBox="0 0 38 38"><g transform="translate(13842 7682)"><g transform="translate(-13842 -7682)" fill="#fff" stroke="#707070" stroke-width="1" opacity="0"><rect width="38" height="38" stroke="none"/><rect x="0.5" y="0.5" width="37" height="37" fill="none"/></g><g transform="translate(-13835 -7675)"><path d="M0,0H24V24H0Z" fill="none"/><path d="M7.784,14l.42-4H4V8H8.415L8.94,3h2.011l-.525,5h3.989l.525-5h2.011l-.525,5H20v2H16.216l-.42,4H20v2H15.585l-.525,5H13.049l.525-5H9.585L9.06,21H7.049l.525-5H4V14ZM9.8,14h3.99l.42-4h-3.99Z" fill="#666"/></g></g></svg>