<svg xmlns="http://www.w3.org/2000/svg" width="88.188" height="113.865" viewBox="0 0 88.188 113.865"><g transform="translate(0 19.414) rotate(-30)"><path d="M24.352,0C19.22.574.557,9.1.012,53.088c-.573,46.333,19.207,56.08,24.395,55.975V78.46c-4.27,0-5.129-4.65-6.1-14.243a109.222,109.222,0,0,1,0-22.017c.585-5.481,1.605-10.83,6.077-10.83Z" transform="translate(0)"/><path d="M125.3,372.681a3.393,3.393,0,0,0,3.4-3.418l.014-.014s-.014-23.851-.014-23.866A3.383,3.383,0,0,0,125.3,342h-8.669v30.681s8.648.013,8.655.006Z" transform="translate(-89.88 -263.565)"/><path d="M125.3,31.369a3.393,3.393,0,0,0,3.4-3.418l.014-.014s-.014-24.539-.014-24.554A3.383,3.383,0,0,0,125.3,0h-8.669V31.369s8.648.013,8.655.006Z" transform="translate(-89.88 0)"/></g></svg>